<?xml version="1.0" standalone="no"?>
<!DOCTYPE svg PUBLIC "-//W3C//DTD SVG 20010904//EN"
 "http://www.w3.org/TR/2001/REC-SVG-20010904/DTD/svg10.dtd">
<svg version="1.0" xmlns="http://www.w3.org/2000/svg"
 width="500.000000pt" height="500.000000pt" viewBox="0 0 500.000000 500.000000"
 preserveAspectRatio="xMidYMid meet">

<g transform="translate(0.000000,500.000000) scale(0.100000,-0.100000)"
fill="#000000" stroke="none">
<path d="M2553 4534 c-18 -9 -49 -37 -70 -63 -20 -25 -40 -48 -43 -51 -3 -3
-27 -30 -54 -60 -28 -30 -120 -129 -205 -219 -86 -90 -164 -176 -174 -192 -19
-28 -33 -77 -58 -194 l-13 -60 -7 65 c-4 36 -7 164 -8 285 -1 192 -4 225 -20
261 -40 88 -136 125 -224 86 -52 -23 -129 -117 -148 -182 -8 -26 -10 -149 -7
-403 l3 -367 -62 123 c-70 138 -118 200 -172 223 -73 31 -161 0 -212 -74 -17
-26 -24 -52 -27 -103 -4 -64 -1 -74 51 -191 31 -68 88 -195 127 -283 39 -88
80 -179 91 -202 10 -24 19 -45 19 -48 0 -2 11 -28 24 -57 79 -176 206 -491
206 -511 0 -10 -4 -17 -10 -17 -19 0 -91 -73 -118 -119 -26 -44 -27 -52 -32
-231 l-5 -185 -42 -6 c-50 -6 -73 -24 -73 -56 0 -42 18 -61 88 -94 37 -18 218
-106 402 -196 184 -90 344 -166 356 -169 12 -3 37 2 54 11 l33 17 -6 -43 c-18
-117 -27 -175 -51 -311 -14 -81 -26 -164 -26 -186 0 -48 10 -58 242 -231 164
-122 179 -131 200 -120 20 11 165 116 178 129 3 3 32 25 65 50 33 25 90 69
128 98 73 58 77 68 57 155 -10 45 -78 427 -82 464 -2 18 12 33 63 70 37 27
146 104 242 173 190 135 212 160 183 205 -9 14 -26 26 -39 26 -12 1 -31 2 -42
3 -19 1 -20 10 -25 156 -6 173 -12 192 -79 258 l-39 37 167 137 c280 231 290
245 272 400 -54 459 -62 490 -125 529 -42 26 -121 25 -163 -1 -33 -20 -33 -20
-33 1 0 59 -77 149 -175 204 -110 62 -221 97 -411 130 -99 18 -84 23 -236 -86
-60 -44 -113 -78 -116 -74 -6 5 15 214 25 249 3 11 47 65 97 120 146 161 238
269 247 293 24 63 59 219 59 262 0 39 -7 59 -32 97 -54 78 -139 105 -215 68z
m95 -136 c7 -7 12 -23 12 -37 0 -45 -47 -202 -67 -224 -21 -24 -205 -226 -268
-295 -55 -60 -60 -73 -74 -187 -20 -170 -31 -252 -42 -335 -10 -70 -9 -83 5
-105 27 -41 70 -34 140 22 33 26 114 87 180 136 l121 88 60 -6 c164 -17 341
-84 417 -156 43 -41 48 -71 16 -93 -35 -25 -79 -19 -132 17 -98 65 -106 68
-181 65 -124 -6 -228 -77 -286 -196 -20 -40 -24 -62 -24 -152 0 -122 16 -166
92 -250 150 -167 432 -174 603 -14 84 79 93 101 101 241 6 107 9 127 33 167
30 51 62 74 79 57 6 -6 14 -39 18 -73 4 -35 13 -110 21 -168 7 -58 13 -141 13
-185 l0 -80 -100 -83 c-55 -46 -109 -91 -120 -100 -81 -69 -295 -238 -343
-270 -104 -71 -268 -142 -327 -142 -29 0 -65 -35 -65 -64 0 -61 68 -81 180
-52 52 14 69 10 70 -14 0 -10 -214 -140 -231 -140 -15 0 -147 47 -589 210 -41
15 -102 38 -135 52 l-60 24 -7 100 c-5 87 -12 114 -56 224 -140 354 -237 579
-403 948 -66 144 -119 268 -119 276 0 8 8 24 18 36 29 36 54 18 122 -88 61
-94 217 -403 260 -513 12 -30 28 -64 36 -76 29 -46 114 -16 114 40 0 12 -7 41
-15 64 -13 39 -23 127 -45 418 -5 66 -10 249 -10 407 l0 286 33 44 c35 46 59
57 82 38 13 -10 15 -58 15 -279 0 -147 4 -292 9 -322 5 -30 24 -146 41 -259
17 -113 37 -216 43 -230 15 -30 58 -38 92 -16 24 16 31 39 54 194 59 390 80
505 98 526 10 11 61 66 113 121 210 220 304 323 342 374 31 43 46 49 66 29z
m240 -1273 c61 -51 120 -70 215 -70 l89 0 -6 -29 c-3 -16 -6 -59 -6 -95 0 -82
-28 -132 -99 -178 -204 -134 -479 38 -407 255 18 54 63 103 116 126 49 21 64
20 98 -9z m-1268 -1029 c0 -77 9 -105 47 -140 29 -27 185 -92 533 -221 112
-42 207 -78 210 -81 3 -3 -16 -25 -41 -47 -174 -156 -223 -197 -234 -197 -11
0 -293 133 -505 238 l-75 37 -3 195 c-1 107 0 205 3 217 5 23 42 63 57 63 4 0
8 -29 8 -64z m1487 -6 c62 -38 68 -56 71 -245 1 -93 -1 -175 -5 -181 -4 -5
-48 -39 -98 -74 -49 -35 -100 -73 -112 -83 -12 -11 -29 -17 -37 -14 -8 3 -64
43 -125 88 -74 56 -107 87 -101 94 5 6 44 33 87 59 158 98 273 177 292 203 30
38 27 79 -9 115 -24 24 -28 33 -19 44 15 18 18 18 56 -6z m-414 -606 c31 -25
57 -49 57 -54 0 -8 -349 -346 -395 -381 -32 -26 -32 -25 -4 131 l21 120 66 64
c129 123 177 165 187 166 6 0 36 -21 68 -46z m119 -356 l15 -91 -194 -191
c-107 -105 -198 -192 -202 -194 -4 -1 -16 6 -26 15 -11 10 -41 34 -67 53 -26
19 -48 38 -48 41 0 6 69 72 255 244 71 66 152 141 180 167 27 26 55 48 60 48
6 0 18 -41 27 -92z m58 -323 c0 -23 -74 -86 -259 -219 -14 -11 32 40 104 112
71 73 135 132 142 132 7 0 13 -11 13 -25z"/>
<path d="M2095 2951 c-28 -16 -79 -59 -113 -95 -68 -73 -81 -116 -44 -149 32
-29 57 -20 128 51 38 37 92 83 119 102 56 39 64 60 41 95 -22 34 -68 32 -131
-4z"/>
<path d="M2222 2550 c-12 -5 -27 -21 -32 -36 -9 -21 -5 -37 21 -87 17 -34 37
-91 45 -127 14 -67 32 -90 68 -90 53 1 71 42 56 128 -11 67 -58 180 -82 199
-21 17 -52 22 -76 13z"/>
<path d="M1484 1220 c-29 -12 -47 -65 -32 -93 15 -30 27 -37 64 -37 70 0 92
99 29 128 -30 14 -32 14 -61 2z"/>
<path d="M3325 1185 c-46 -46 -22 -115 41 -115 41 0 74 29 74 65 0 31 -41 75
-70 75 -11 0 -32 -11 -45 -25z"/>
</g>
</svg>
